<svg xmlns="http://www.w3.org/2000/svg" viewBox="0 0 32 32">
  <!-- Fondo del favicon -->
  <rect width="32" height="32" rx="4" fill="#4F46E5" />
  
  <!-- Libro abierto simplificado -->
  <path d="M7 10 L25 10 L25 22 L7 22 Z" fill="#F3F4F6" />
  
  <!-- Páginas del libro (simplificado) -->
  <path d="M16 10 L25 10 L25 22 L16 22 C16 22, 22 21, 22 16 C22 11, 16 10, 16 10 Z" fill="#E5E7EB" />
  <path d="M7 10 L16 10 L16 22 L7 22 C7 22, 10 21, 10 16 C10 11, 7 10, 7 10 Z" fill="#FFFFFF" />
  
  <!-- Líneas simplificadas (texto) -->
  <rect x="8" y="12" width="6" height="1" rx="0.5" fill="#6366F1" />
  <rect x="8" y="14" width="5" height="1" rx="0.5" fill="#6366F1" opacity="0.8" />
  <rect x="8" y="16" width="6" height="1" rx="0.5" fill="#6366F1" opacity="0.7" />
  <rect x="8" y="18" width="5" height="1" rx="0.5" fill="#6366F1" opacity="0.9" />
  <rect x="8" y="20" width="6" height="1" rx="0.5" fill="#6366F1" opacity="0.6" />
  
  <!-- Líneas para la página derecha -->
  <rect x="17" y="12" width="6" height="1" rx="0.5" fill="#4F46E5" />
  <rect x="17" y="14" width="5" height="1" rx="0.5" fill="#4F46E5" opacity="0.8" />
  <rect x="17" y="16" width="6" height="1" rx="0.5" fill="#4F46E5" opacity="0.7" />
  <rect x="17" y="18" width="5" height="1" rx="0.5" fill="#4F46E5" opacity="0.9" />
  <rect x="17" y="20" width="6" height="1" rx="0.5" fill="#4F46E5" opacity="0.6" />
  
  <!-- H para Hemeroteca (Simplificado) -->
  <path d="M12 6 L12 2 L12 4 L14 4 L14 2 L14 6" stroke="#FFFFFF" stroke-width="1" stroke-linecap="round" stroke-linejoin="round" fill="none" />

  <!-- Lupa simplificada -->
  <circle cx="24" cy="8" r="2" fill="none" stroke="#FFFFFF" stroke-width="1" />
  <path d="M25.5 9.5 L27 11" stroke="#FFFFFF" stroke-width="1" stroke-linecap="round" />
</svg>
